<svg width="32" height="32" viewBox="0 0 32 32" fill="none" xmlns="http://www.w3.org/2000/svg">
<g id="fluent:cart-24-filled">
<path id="Vector" d="M3.33331 5.66666C3.33331 5.40144 3.43867 5.14709 3.62621 4.95955C3.81374 4.77201 4.0681 4.66666 4.33331 4.66666H5.07731C6.34398 4.66666 7.10398 5.51866 7.53731 6.31066C7.82665 6.83866 8.03598 7.45066 8.19998 8.00532C8.24434 8.00182 8.28882 8.00004 8.33331 7.99999H24.9973C26.104 7.99999 26.904 9.05866 26.6 10.124L24.1626 18.6693C23.9441 19.4358 23.4818 20.1102 22.8457 20.5904C22.2096 21.0706 21.4343 21.3305 20.6373 21.3307H12.7066C11.9033 21.3307 11.1222 21.0669 10.4833 20.5798C9.84451 20.0927 9.38331 19.4093 9.17065 18.6347L8.15731 14.9387L6.47731 9.27466L6.47598 9.26399C6.26798 8.50799 6.07331 7.79999 5.78265 7.27199C5.50398 6.75866 5.27998 6.66666 5.07865 6.66666H4.33331C4.0681 6.66666 3.81374 6.5613 3.62621 6.37376C3.43867 6.18623 3.33331 5.93187 3.33331 5.66666ZM12 28C12.7072 28 13.3855 27.719 13.8856 27.2189C14.3857 26.7188 14.6666 26.0406 14.6666 25.3333C14.6666 24.6261 14.3857 23.9478 13.8856 23.4477C13.3855 22.9476 12.7072 22.6667 12 22.6667C11.2927 22.6667 10.6145 22.9476 10.1144 23.4477C9.61426 23.9478 9.33331 24.6261 9.33331 25.3333C9.33331 26.0406 9.61426 26.7188 10.1144 27.2189C10.6145 27.719 11.2927 28 12 28ZM21.3333 28C22.0406 28 22.7188 27.719 23.2189 27.2189C23.719 26.7188 24 26.0406 24 25.3333C24 24.6261 23.719 23.9478 23.2189 23.4477C22.7188 22.9476 22.0406 22.6667 21.3333 22.6667C20.6261 22.6667 19.9478 22.9476 19.4477 23.4477C18.9476 23.9478 18.6666 24.6261 18.6666 25.3333C18.6666 26.0406 18.9476 26.7188 19.4477 27.2189C19.9478 27.719 20.6261 28 21.3333 28Z" fill="black"/>
</g>
</svg>
